<?xml version="1.0" ?>
<!DOCTYPE svg  PUBLIC '-//W3C//DTD SVG 1.1//EN'  'http://www.w3.org/Graphics/SVG/1.1/DTD/svg11.dtd'>
<!-- Uploaded to: SVG Repo, www.svgrepo.com, Generator: SVG Repo Mixer Tools -->
<svg fill="#000000" width="800px" height="800px" viewBox="0 0 512 512" enable-background="new 0 0 512 512" id="dolphin" version="1.1" xml:space="preserve" xmlns="http://www.w3.org/2000/svg" xmlns:xlink="http://www.w3.org/1999/xlink">
<g>
<circle cx="89.415" cy="131.024" r="5.369"/>
<path d="M486.188,452.186c-3.08-23.793-23.563-49.424-41.702-60.623l-10.596-8.063c-3.976-3.025-6.862-7.352-8.13-12.185   c-0.417-1.588,0.043-3.75,0.574-6.253c0.108-0.508,0.216-1.017,0.318-1.526c2.972-14.761,5.161-29.476,6.529-43.834   c0.345-3.621-2.342-6.821-5.968-7.105h-0.004c-3.53-0.276-6.632,2.32-6.968,5.845c-1.324,13.922-3.45,28.198-6.334,42.531   c-0.094,0.464-0.192,0.926-0.29,1.388c-0.728,3.423-1.633,7.684-0.433,12.255c2,7.626,6.557,14.455,12.832,19.23l10.855,8.26   l0.552,0.377c14.528,8.857,31.528,29.882,35.363,48.373c-6.256-7.973-17.916-21.901-48.066-20.869   c-0.164,0.005-0.324,0.008-0.485,0.008c-15.22,0-21.82-24.345-21.882-24.581l-0.958-3.688l-10.868-2.837l-2.643,2.723   c-0.182,0.187-18.243,18.544-31.552,10.455c-25.896-15.744-42.876-9.223-52.218-5.347c10.866-12.987,32.749-24.088,49.142-24.66   l22.953-0.803c5.517-0.193,10.549-2.86,13.807-7.318c4.301-5.889,6.101-13.101,5.104-20.354   c-2.812-65.17-17.58-117.754-43.9-156.292c-20.553-30.094-48.159-51.792-82.129-64.574c-3.427-1.289-7.241,0.558-8.409,4.028l0,0   c-1.123,3.335,0.624,6.93,3.918,8.169c55.997,21.062,92.288,67.188,108.403,137.554c-9.16-18.517-21.652-37.392-38.705-54.953   c-30.054-30.952-68.875-52.593-112.267-62.581c-11.705-2.694-23.592-4.497-35.56-5.432c-0.11-0.007-0.218-0.021-0.328-0.028v0.002   c-32.149-2.465-64.884,1.396-96.29,11.504L47.67,184.236c-0.788,0.248-1.6,0.341-2.402,0.291   c10.692-3.995,28.191-11.413,45.229-22.507c29.056-18.917,61.892-29.196,94.958-29.726c15.874-0.256,31.17,0.916,45.554,3.481   c3.468,0.618,6.801-1.602,7.526-5.048l0.001-0.003c0.753-3.577-1.586-7.093-5.184-7.735c-15.224-2.719-31.372-3.96-48.105-3.693   c-35.517,0.568-70.734,11.575-101.844,31.829c-16.846,10.968-34.563,18.238-44.394,21.835c0.758-3.537,2.912-6.728,6.162-8.729   l19.008-11.704l0.526-2.837c8.212-44.259,39.538-66.455,64.372-77.282c56.596-24.674,139.584-17.723,193.041,16.17l0.167,0.103   c83.057,49.212,100.37,134.411,99.59,199.601c-0.042,3.55,2.749,6.481,6.298,6.589l0,0c3.64,0.11,6.658-2.796,6.701-6.437   c0.528-44.117-7.107-83.857-22.724-118.21c-10.436-22.956-24.297-43.117-41.417-60.324l-0.016-0.252   c-0.198-3.088-0.801-12.485,8.08-22.575c4.249-4.828,10.53-7.242,19.194-7.374c3.465-0.052,6.765-1.868,8.275-4.987   c1.913-3.953,0.702-8.571-2.736-11.081c-18.9-13.783-41.584-16.675-61.28-17.686c-21.742-1.118-46.435-1.248-79.523,5.104   c-47.083-10.561-99.074-7.897-138.846,9.442c-38.786,16.91-63.417,45.904-71.394,83.968l-14.134,8.702   c-10.368,6.385-15.068,18.947-11.444,30.565c1.042,3.341,2.872,6.382,5.493,8.7c5.44,4.813,12.571,6.28,19.163,4.211l42.229-13.271   c31.303-10.075,63.691-13.388,94.973-10.448c14.271,3.045,25.055,19.313,29.856,26.562l0.682,1.026   c3.426,5.143,9.725,16.158,11.021,20.034c2.362,7.021,7.653,12.588,14.515,15.275c2.901,1.136,5.943,1.699,8.977,1.699   c4.065-0.001,8.115-1.013,11.782-3.013l0.646-0.352c9.395-5.128,14.4-15.619,12.455-26.1c-0.523-2.833-1.223-5.598-2.06-8.304   c17.753,9.819,34.075,22.14,48.332,36.822c38.381,39.527,52.313,86.283,57.242,118.544c0.607,3.979-0.349,7.938-2.691,11.148   c-0.883,1.209-2.272,1.947-3.769,2l-22.952,0.803c-21.236,0.742-47.829,14.661-60.541,31.688   c-2.987,4.002-3.721,9.326-1.914,13.897c1.156,2.924,3.015,4.944,5.523,6.006c4.256,1.799,8.338,0.101,12.66-1.697   c8.067-3.356,20.259-8.428,41.048,4.212c16.348,9.941,33.912-0.984,42.443-7.857c3.994,9.997,13.669,27.683,32.147,27.68   c0.325,0,0.657-0.005,0.988-0.017c24.335-0.813,32.453,9.579,37.838,16.46c3.013,3.85,5.858,7.486,10.776,7.734   c0.158,0.009,0.316,0.013,0.474,0.013c2.928-0.001,5.734-1.379,8.35-4.104c2.779-2.897,4.09-6.825,3.604-10.787L486.188,452.186z    M341.586,58.928c15.011,0.771,30.557,2.541,44.438,9.299c-6.888,1.817-12.574,5.247-16.983,10.258   c-5.415,6.152-8.899,12.905-10.451,20.166c-9.098-7.758-18.966-14.801-29.593-21.104c-11.107-7.033-23.425-12.954-36.488-17.76   C311.346,57.895,327.14,58.187,341.586,58.928z M260.022,222.738l-0.645,0.352c-3.067,1.675-6.547,1.895-9.794,0.623   c-3.273-1.283-5.802-3.95-6.932-7.307c-1.899-5.676-9.165-18.059-12.528-23.107l-0.661-0.996   c-2.406-3.633-6.061-9.143-10.92-14.619c13.759,3.135,27.144,7.523,39.951,13.116c3.626,5.979,6.123,12.563,7.426,19.618   C266.837,215.362,264.466,220.313,260.022,222.738z"/>
</g>
</svg>