<?xml version="1.0" encoding="utf-8"?>
<!-- Uploaded to: SVG Repo, www.svgrepo.com, Generator: SVG Repo Mixer Tools -->
<svg fill="#000000" width="800px" height="800px" viewBox="0 0 32 32" version="1.1" xmlns="http://www.w3.org/2000/svg">
<title>campfire</title>
<path d="M25.291 24.419c3.824-2.818 5.82-8.805 0.33-11.405 2.438 3.774-0.819 6.555-3.79 2.587-2.405-4.501 5.14-7.076-4.264-14.139h-0c3.022 4.462-1.151 9.084-3.972 3.681 1.703 9.017-4.070 10.38-4.665 4.665-4.782 4.23-3.62 9.614-0.962 13.643l-3.924 2.256c0.244 2.363 1.36 4.226 3.267 5.633l5.328-3.063c0.227 1.788 1.76 3.172 3.618 3.172 1.366 0 2.557-0.749 3.182-1.856l6.746 1.8c1.476-1.851 2.070-3.938 1.691-6.283l-2.584-0.69zM9.561 17.181c1.603 2.46 6.667 0.629 6.060-3.741 0.667 2.001 2.358 1.806 4.104-1.28-2.375 6.409 1.362 10.568 3.863 8.65 0.112 0.915-0.328 1.992-1.013 2.884l-7.484-1.997c-0.521 0.508-0.922 1.107-1.217 1.752l-1.247-0.395c-0.057-0.020-0.114-0.042-0.17-0.065-0.014-0.006-0.028-0.012-0.042-0.017-0.055-0.023-0.109-0.047-0.162-0.073-0.005-0.002-0.010-0.005-0.015-0.007-0.048-0.024-0.096-0.049-0.144-0.075-0.017-0.009-0.034-0.019-0.051-0.029-0.043-0.024-0.085-0.049-0.127-0.075-0.021-0.013-0.041-0.026-0.061-0.039-0.033-0.021-0.066-0.043-0.099-0.066-0.023-0.016-0.045-0.031-0.068-0.047-0.026-0.019-0.052-0.038-0.078-0.058-0.040-0.030-0.079-0.061-0.118-0.093-0.018-0.014-0.035-0.029-0.053-0.043-0.028-0.024-0.056-0.048-0.084-0.073-0.009-0.008-0.019-0.017-0.028-0.026-0.057-0.051-0.113-0.104-0.167-0.159-0.006-0.006-0.012-0.012-0.018-0.018-0.095-0.096-0.187-0.198-0.275-0.303-0.98-1.177-1.499-2.912-1.307-4.608zM10.849 3.003c-4.001 2.017-0.913 3.774-0.875 5.761 2.753-2.429-0.233-3.337 0.875-5.761z"></path>
</svg>