<?xml version="1.0" encoding="utf-8"?>

<!DOCTYPE svg PUBLIC "-//W3C//DTD SVG 1.1//EN" "http://www.w3.org/Graphics/SVG/1.1/DTD/svg11.dtd">
<!-- Uploaded to: SVG Repo, www.svgrepo.com, Generator: SVG Repo Mixer Tools -->
<svg height="800px" width="800px" version="1.1" id="_x32_" xmlns="http://www.w3.org/2000/svg" xmlns:xlink="http://www.w3.org/1999/xlink" 
	 viewBox="0 0 512 512"  xml:space="preserve">
<style type="text/css">
	.st0{fill:#000000;}
</style>
<g>
	<path class="st0" d="M184.297,115.479c21.824,6.823,39.669,20.913,52.011,39.309l1.722-9.817
		c6.339-30.336-7.542-63.542-38.33-73.158c-30.788-9.608-61.109,9.791-73.166,38.339l-2.944,6.372
		c10.286-3.554,21.005-5.477,31.859-5.477C165.148,111.047,174.865,112.544,184.297,115.479z"/>
	<path class="st0" d="M60.34,321.976l60.356-60.348C87.365,261.628,60.34,288.646,60.34,321.976z"/>
	<path class="st0" d="M275.676,154.755c12.359-18.362,30.204-32.452,52.028-39.276c9.432-2.936,19.132-4.432,28.832-4.432
		c10.854,0,21.591,1.923,31.875,5.494l-2.943-6.388c-12.058-28.548-42.378-47.947-73.167-38.339
		c-30.772,9.616-44.669,42.822-38.331,73.158L275.676,154.755z"/>
	<path class="st0" d="M391.304,201.272c-56.175,0-103.369,38.365-116.848,90.318c-2.642-1.439-5.469-2.542-8.446-3.337
		c1.723-6.589,3.948-12.969,6.64-19.115l0.134,0.811c20.085-45.538,65.625-77.439,118.522-77.439
		c25.972,0,50.172,7.718,70.475,20.954l-12.593-27.318c-19.584-46.391-68.852-77.925-118.89-62.296
		c-36.993,11.556-58.951,44.101-63.718,80.208c-3.294-1.27-6.84-2.007-10.586-2.007c-3.729,0-7.292,0.736-10.57,2.007
		c-4.766-36.107-26.725-68.651-63.734-80.208c-50.021-15.628-99.29,15.905-118.89,62.296l-12.576,27.318
		c20.302-13.236,44.502-20.954,70.474-20.954c52.881,0,98.436,31.901,118.506,77.439l0.15-0.811
		c2.693,6.146,4.918,12.526,6.64,19.115c-2.976,0.794-5.82,1.898-8.462,3.337c-13.48-51.953-60.658-90.318-116.833-90.318
		C54.035,201.272,0,255.315,0,321.976c0,66.653,54.035,120.696,120.696,120.696c53.751,0,99.273-35.137,114.893-83.694
		c5.937,3.671,12.911,5.82,20.403,5.82c7.51,0,14.466-2.149,20.42-5.82c15.62,48.558,61.142,83.694,114.892,83.694
		C457.966,442.672,512,388.63,512,321.976C512,255.315,457.966,201.272,391.304,201.272z M120.696,403.739
		c-45.154,0-81.763-36.609-81.763-81.763s36.609-81.762,81.763-81.762c45.171,0,81.763,36.608,81.763,81.762
		S165.867,403.739,120.696,403.739z M391.304,403.739c-45.171,0-81.762-36.609-81.762-81.763s36.592-81.762,81.762-81.762
		c45.155,0,81.764,36.608,81.764,81.762S436.459,403.739,391.304,403.739z"/>
	<path class="st0" d="M330.948,321.976l60.356-60.348C357.957,261.628,330.948,288.646,330.948,321.976z"/>
</g>
</svg>